<?xml version="1.0" standalone="no"?>
<!DOCTYPE svg PUBLIC "-//W3C//DTD SVG 20010904//EN"
 "http://www.w3.org/TR/2001/REC-SVG-20010904/DTD/svg10.dtd">
<svg version="1.0" xmlns="http://www.w3.org/2000/svg"
 width="700.000000pt" height="700.000000pt" viewBox="0 0 700.000000 700.000000"
 preserveAspectRatio="xMidYMid meet">
<metadata>
Created by potrace 1.11, written by Peter Selinger 2001-2013
</metadata>
<g transform="translate(0.000000,700.000000) scale(0.100000,-0.100000)"
fill="#000000" stroke="none">
<path d="M3278 6995 c-1 -1 -43 -6 -91 -10 -48 -3 -96 -8 -105 -9 -9 -2 -44
-7 -77 -12 -33 -4 -62 -8 -65 -9 -3 -1 -25 -5 -50 -9 -117 -19 -320 -70 -455
-113 -921 -297 -1672 -950 -2089 -1817 -130 -271 -230 -571 -281 -851 -10 -49
-18 -97 -20 -105 -2 -9 -6 -43 -10 -75 -4 -33 -9 -69 -11 -80 -25 -136 -25
-678 1 -813 1 -9 6 -44 9 -77 4 -33 9 -67 11 -75 3 -8 7 -31 9 -50 15 -122
141 -573 185 -665 6 -11 23 -51 39 -90 65 -154 166 -349 238 -462 19 -30 34
-57 34 -62 0 -5 4 -11 8 -13 5 -2 34 -41 65 -88 52 -78 213 -286 261 -336 225
-236 328 -330 506 -465 47 -35 87 -67 88 -71 2 -5 8 -8 14 -8 11 0 101 -61
106 -72 2 -5 9 -8 16 -8 8 0 24 -8 37 -19 48 -37 231 -136 379 -205 156 -71
149 -69 245 -104 213 -79 504 -155 669 -177 27 -3 52 -8 55 -9 26 -16 821 -25
926 -11 575 79 1086 271 1545 584 232 157 465 362 635 555 33 38 67 76 75 85
27 29 145 184 194 255 243 349 435 779 530 1186 67 284 69 311 74 764 3 376
-1 493 -22 601 -2 11 -11 61 -21 110 -159 853 -666 1651 -1371 2159 -65 47
-123 90 -129 94 -36 29 -257 154 -372 212 -228 114 -464 202 -708 263 -99 25
-242 55 -293 62 -15 2 -40 6 -57 9 -16 2 -57 7 -90 11 -33 3 -73 8 -90 11 -35
5 -541 14 -547 9z"/>
</g>
</svg>
